<?xml version="1.0" standalone="no"?>
<!DOCTYPE svg PUBLIC "-//W3C//DTD SVG 20010904//EN"
 "http://www.w3.org/TR/2001/REC-SVG-20010904/DTD/svg10.dtd">
<svg version="1.0" xmlns="http://www.w3.org/2000/svg"
 width="512.000000pt" height="512.000000pt" viewBox="0 0 512.000000 512.000000"
 preserveAspectRatio="xMidYMid meet">
<metadata>
Created by potrace 1.11, written by Peter Selinger 2001-2013
</metadata>
<g transform="translate(0.000000,512.000000) scale(0.100000,-0.100000)"
fill="#000000" stroke="none">
<path d="M0 2942 l0 -2177 383 -383 382 -382 2178 0 2177 0 0 2178 0 2177
-383 383 -382 382 -2178 0 -2177 0 0 -2178z m2168 526 l2 -337 117 -3 116 -3
48 -165 c27 -91 51 -177 54 -192 l7 -28 -171 0 -171 0 -2 -712 -3 -713 -225 0
-225 0 -3 713 -2 712 -115 0 -115 0 0 195 0 195 115 0 115 0 0 333 c0 184 3
337 7 341 4 3 106 5 227 4 l221 -3 3 -337z m971 -871 c166 -387 229 -524 235
-514 6 9 109 246 231 529 l221 513 233 3 c185 2 232 0 228 -10 -3 -7 -177
-411 -387 -898 -210 -487 -384 -891 -387 -898 -4 -9 -40 -12 -150 -10 l-145 3
-384 900 c-211 495 -384 903 -384 908 0 4 104 6 232 5 l232 -3 225 -528z
m-1933 -765 c56 -29 119 -102 134 -157 15 -55 8 -150 -14 -193 -24 -46 -83
-101 -130 -123 -26 -12 -64 -19 -107 -19 -109 0 -195 55 -240 155 -25 54 -25
156 0 212 25 54 91 118 144 137 57 21 160 15 213 -12z"/>
</g>
</svg>
