<?xml version="1.0" ?><!DOCTYPE svg  PUBLIC '-//W3C//DTD SVG 1.1//EN'  'http://www.w3.org/Graphics/SVG/1.1/DTD/svg11.dtd'><svg enable-background="new 0 0 512 512" height="512px" id="Layer_1" version="1.1" viewBox="0 0 512 512" width="512px" xml:space="preserve" xmlns="http://www.w3.org/2000/svg" xmlns:xlink="http://www.w3.org/1999/xlink"><g><polygon clip-rule="evenodd" fill="#462873" fill-rule="evenodd" points="0,0 435.207,0 512,76.793 512,512 76.793,512 0,435.203     "/><polygon clip-rule="evenodd" fill="#632F92" fill-rule="evenodd" points="435.207,0 512,76.793 435.207,76.793  "/><polygon clip-rule="evenodd" fill="#281049" fill-rule="evenodd" points="435.207,76.793 512,153.586 512,76.793  "/><polygon clip-rule="evenodd" fill="#632F92" fill-rule="evenodd" points="76.793,512 0,435.203 76.793,435.203  "/><polygon clip-rule="evenodd" fill="#281049" fill-rule="evenodd" points="153.588,512 76.793,435.203 76.793,512  "/><path clip-rule="evenodd" d="M231.891,512h73.918h116.094H512v-85.414v-6.949V281.32   l-82.691-82.689l-41.57,96.596l-2.109,4.992l-34.621,80.266h-29.176l-77.547-181.854h39.605l-67.117-67.115v67.115h23.279   l11.34,39.303h-34.619v68.93v73.621h-42.328h-3.174v-3.172l-43.684-43.535c4.984,4.984,7.555,11.184,7.555,18.293   c0,7.402-2.57,13.602-7.709,18.59c-5.139,5.133-11.338,7.711-18.594,7.711c-5.896,0-11.037-1.668-15.568-4.996L231.891,512z    M171.271,261.367v-23.434h-23.434L171.271,261.367z M296.285,211.027l40.512,94.93l16.328-38.09l2.262-4.984l-64.395-64.252   L296.285,211.027z" fill="#281049" fill-rule="evenodd"/><path d="M108.84,326.066c7.256,0,13.455,2.418,18.594,7.559c5.139,4.984,7.709,11.184,7.709,18.445   c0,7.402-2.57,13.602-7.709,18.59c-5.139,5.133-11.338,7.711-18.594,7.711c-7.258,0-13.455-2.578-18.443-7.711   c-5.137-4.988-7.709-11.188-7.709-18.59c0-7.262,2.572-13.461,7.709-18.445C95.385,328.484,101.582,326.066,108.84,326.066   L108.84,326.066z M171.271,131.516h45.502v67.115h23.279l11.34,39.303h-34.619v142.551h-45.502V237.934h-23.434v-39.303h23.434   V131.516z M244.285,198.631h46.707l45.805,107.326l46.258-107.326h46.254l-78.301,181.854h-29.176L244.285,198.631z" fill="#FFFFFF"/></g></svg>