<?xml version="1.0" ?><!DOCTYPE svg  PUBLIC '-//W3C//DTD SVG 1.1//EN'  'http://www.w3.org/Graphics/SVG/1.1/DTD/svg11.dtd'><svg enable-background="new 0 0 128 128" id="Слой_1" version="1.1" viewBox="0 0 128 128" xml:space="preserve" xmlns="http://www.w3.org/2000/svg" xmlns:xlink="http://www.w3.org/1999/xlink"><g><g><path d="M77.1,83.4c-0.3,0-0.6-0.1-0.9-0.4L45,51.8c-0.5-0.5-0.5-1.3,0-1.8s1.3-0.5,1.8,0L78,81.2    c0.5,0.5,0.5,1.3,0,1.8C77.7,83.2,77.4,83.4,77.1,83.4z" fill="#62345B"/></g><g><path d="M27.9,101.3c-0.3,0-0.6-0.1-0.9-0.4c-0.5-0.5-0.5-1.3,0-1.8l38.2-38.4c0.5-0.5,1.3-0.5,1.8,0    c0.5,0.5,0.5,1.3,0,1.8L28.8,101C28.6,101.2,28.2,101.3,27.9,101.3z" fill="#62345B"/></g><g><circle cx="27.9" cy="100.1" fill="#EE7F8F" r="5"/></g><g><path d="M27.9,106.3c-3.4,0-6.2-2.8-6.2-6.2s2.8-6.2,6.2-6.2s6.2,2.8,6.2,6.2S31.4,106.3,27.9,106.3z M27.9,96.3    c-2.1,0-3.8,1.7-3.8,3.8s1.7,3.8,3.8,3.8s3.8-1.7,3.8-3.8S30,96.3,27.9,96.3z" fill="#62345B"/></g><g><path d="M27.9,111.3c-2.9,0-5.8-1.1-8-3.3c-4.4-4.4-4.4-11.5,0-15.9c0.5-0.5,1.3-0.5,1.8,0s0.5,1.3,0,1.8    c-3.4,3.4-3.4,9,0,12.4c3.4,3.4,9,3.4,12.4,0c0.5-0.5,1.3-0.5,1.8,0s0.5,1.3,0,1.8C33.7,110.2,30.8,111.3,27.9,111.3z" fill="#62345B"/></g><g><path d="M27.9,116.3c-4.3,0-8.4-1.7-11.5-4.8c-3.1-3.1-4.8-7.1-4.8-11.5c0-4.3,1.7-8.4,4.8-11.5    c0.5-0.5,1.3-0.5,1.8,0s0.5,1.3,0,1.8c-2.6,2.6-4,6.1-4,9.7c0,3.7,1.4,7.1,4,9.7s6,4,9.7,4c3.7,0,7.1-1.4,9.7-4    c0.5-0.5,1.3-0.5,1.8,0s0.5,1.3,0,1.8C36.3,114.6,32.3,116.3,27.9,116.3z" fill="#62345B"/></g><g><path d="M27.9,121.3c-5.4,0-10.9-2.1-15-6.2c-8.3-8.3-8.3-21.8,0-30.1c0.5-0.5,1.3-0.5,1.8,0s0.5,1.3,0,1.8    c-7.3,7.3-7.3,19.2,0,26.5s19.2,7.3,26.5,0c0.5-0.5,1.3-0.5,1.8,0s0.5,1.3,0,1.8C38.8,119.3,33.4,121.3,27.9,121.3z" fill="#62345B"/></g><g><path d="M78.2,49.8c-5.9-5.9-15.4-5.9-21.2,0L39.6,67.2c-7.5-1.1-15.4,1.3-21.2,7.1l35.4,35.4    c5.8-5.8,8.1-13.7,7.1-21.2L78.2,71C84.1,65.1,84.1,55.6,78.2,49.8z" fill="#ADA2B5"/></g><g><path d="M53.7,110.9c-0.3,0-0.6-0.1-0.9-0.4L17.5,75.1c-0.5-0.5-0.5-1.3,0-1.8c5-5,11.5-7.7,18.6-7.7    c1,0,2.1,0.1,3.1,0.2l17-17c3.1-3.1,7.1-4.8,11.5-4.8c4.3,0,8.4,1.7,11.5,4.8s4.8,7.1,4.8,11.5c0,4.3-1.7,8.4-4.8,11.5l-17,17    c1,8-1.8,15.9-7.5,21.6C54.4,110.7,54.1,110.9,53.7,110.9z M20.2,74.3l33.5,33.5c4.7-5.2,6.9-12.2,5.9-19.2    c-0.1-0.4,0.1-0.8,0.4-1.1l17.4-17.4c2.6-2.6,4-6,4-9.7c0-3.7-1.4-7.1-4-9.7s-6.1-4-9.7-4c-3.7,0-7.1,1.4-9.7,4L40.5,68.1    c-0.3,0.3-0.7,0.4-1.1,0.4c-1.1-0.2-2.2-0.2-3.4-0.2C30.1,68.2,24.5,70.3,20.2,74.3z" fill="#62345B"/></g><g><path d="M60.6,89.9c-0.3,0-0.6-0.1-0.9-0.4L38.5,68.3c-0.5-0.5-0.5-1.3,0-1.8s1.3-0.5,1.8,0l21.2,21.2    c0.5,0.5,0.5,1.3,0,1.8C61.2,89.8,60.9,89.9,60.6,89.9z" fill="#62345B"/></g><g><path d="M78,71.3c-0.3,0-0.6-0.1-0.9-0.4l-0.7-0.7c-0.5-0.5-0.5-1.3,0-1.8s1.3-0.5,1.8,0l0.7,0.7    c0.5,0.5,0.5,1.3,0,1.8C78.7,71.2,78.3,71.3,78,71.3z M73,66.3c-0.3,0-0.6-0.1-0.9-0.4L70,63.8c-0.5-0.5-0.5-1.3,0-1.8    s1.3-0.5,1.8,0l2.1,2.1c0.5,0.5,0.5,1.3,0,1.8C73.6,66.2,73.3,66.3,73,66.3z M66.5,59.8c-0.3,0-0.6-0.1-0.9-0.4l-2.1-2.1    c-0.5-0.5-0.5-1.3,0-1.8s1.3-0.5,1.8,0l2.1,2.1c0.5,0.5,0.5,1.3,0,1.8C67.1,59.7,66.8,59.8,66.5,59.8z M60,53.3    c-0.3,0-0.6-0.1-0.9-0.4L57,50.8c-0.5-0.5-0.5-1.3,0-1.8s1.3-0.5,1.8,0l2.1,2.1c0.5,0.5,0.5,1.3,0,1.8    C60.6,53.2,60.3,53.3,60,53.3z" fill="#62345B"/></g><g opacity="0.2"><path d="M78.2,49.8c-1.2-1.2-2.7-2.2-4.2-2.9c2.7,5.6,1.7,12.4-2.9,17.1L53.5,81.6l7.1,7.1l-6.8-6.8    c0.9,7.4-1.5,15-7.1,20.7l7.1,7.1c5.8-5.8,8.1-13.7,7.1-21.2L78.2,71C84.1,65.1,84.1,55.6,78.2,49.8z" fill="#62345B"/></g><g><path d="M104.2,95.9l-3-15.1c-0.2-0.8-0.8-1.4-1.6-1.6L83.2,76L69.1,90.1l16.4,3.3c0.8,0.2,1.4,0.8,1.6,1.6l3,15.1    c0.2,0.8,0.8,1.4,1.6,1.6l14.3,2.9c1.3,0.3,2.7-0.1,3.6-1.1l10-10c1.1-1.1,0.5-3.1-1-3.4l-12.7-2.5    C105,97.3,104.4,96.7,104.2,95.9z" fill="#F1EE8D"/></g><g><path d="M106.7,115.8L106.7,115.8c-0.3,0-0.7,0-1-0.1l-14.3-2.9c-1.3-0.3-2.3-1.3-2.5-2.5l-3-15.1    c-0.1-0.3-0.3-0.5-0.6-0.6l-16.4-3.3c-0.5-0.1-0.8-0.4-1-0.9c-0.1-0.4,0-0.9,0.3-1.2l14.1-14.1c0.3-0.3,0.7-0.4,1.1-0.3L99.9,78    c1.3,0.3,2.3,1.3,2.5,2.5l3,15.1c0.1,0.3,0.3,0.5,0.6,0.6l12.7,2.5c1.2,0.2,2.1,1.1,2.5,2.2c0.3,1.1,0,2.4-0.8,3.2l-10,10    C109.4,115.2,108.1,115.8,106.7,115.8z M71.6,89.3l14.1,2.8c1.3,0.3,2.3,1.3,2.5,2.5l3,15.1c0.1,0.3,0.3,0.5,0.6,0.6l14.3,2.9    c0.9,0.2,1.8-0.1,2.5-0.8l10-10c0.3-0.3,0.2-0.6,0.2-0.7c0-0.1-0.2-0.4-0.6-0.5l-12.7-2.5c-1.3-0.3-2.3-1.3-2.5-2.5l-3-15.1    c-0.1-0.3-0.3-0.5-0.6-0.6l-15.7-3.1L71.6,89.3z" fill="#62345B"/></g><g opacity="0.2"><path d="M101.2,80.8c-0.1-0.4-0.3-0.7-0.5-1L86.8,93.6l0.3,1.3l0,0l3,15.1c0.1,0.4,0.3,0.7,0.5,1l13.9-13.9    L101.2,80.8z" fill="#62345B"/></g><g><path d="M32.1,23.8l15.1,3c0.8,0.2,1.4,0.8,1.6,1.6L52,44.8L37.9,58.9l-3.3-16.4c-0.2-0.8-0.8-1.4-1.6-1.6l-15.1-3    c-0.8-0.2-1.4-0.8-1.6-1.6l-2.9-14.3c-0.3-1.3,0.1-2.7,1.1-3.6l10-10c1.1-1.1,3.1-0.5,3.4,1l2.5,12.7C30.7,23,31.3,23.6,32.1,23.8    z" fill="#F1EE8D"/></g><g><path d="M37.9,60.1c-0.1,0-0.2,0-0.4-0.1c-0.4-0.1-0.8-0.5-0.9-1l-3.3-16.4c-0.1-0.3-0.3-0.5-0.6-0.6l-15.1-3    c-1.3-0.3-2.3-1.3-2.5-2.5l-2.9-14.3c-0.3-1.7,0.2-3.5,1.4-4.7l10-10c0.6-0.6,1.4-1,2.3-1c1.6,0,2.9,1.1,3.2,2.6L31.8,22    c0.1,0.3,0.3,0.5,0.6,0.6l15.1,3c1.3,0.3,2.3,1.3,2.5,2.6l3.3,16.4c0.1,0.4,0,0.8-0.3,1.1L38.8,59.8C38.5,60,38.2,60.1,37.9,60.1z     M26,9.2c-0.2,0-0.4,0.1-0.5,0.2l-10,10c-0.7,0.7-0.9,1.6-0.8,2.5l2.9,14.3c0.1,0.3,0.3,0.5,0.6,0.6l15.1,3    c1.3,0.3,2.3,1.3,2.5,2.6l2.8,14.1l12-12l-3.1-15.7c-0.1-0.3-0.3-0.5-0.6-0.6l-15.1-3c-1.3-0.3-2.3-1.3-2.5-2.5L26.8,9.8    C26.7,9.4,26.4,9.2,26,9.2z" fill="#62345B"/></g><g opacity="0.2"><path d="M48.8,28.4c-0.1-0.4-0.3-0.7-0.5-1L34.4,41.2l0.3,1.3l0,0l3.3,16.4L52,44.8L48.8,28.4z" fill="#62345B"/></g><g opacity="0.2"><path d="M28.9,13.8L28,9.5c-0.3-1.6-2.2-2.2-3.4-1l-10,10c-0.9,0.9-1.4,2.3-1.1,3.6l2.9,14.3    c0.1,0.4,0.3,0.7,0.5,1l13.9-13.9L28.9,13.8z" fill="#62345B"/></g></g></svg>